<mxfile host="app.diagrams.net" modified="2023-10-08T09:54:49.236Z" agent="Mozilla/5.0 (Macintosh; Intel Mac OS X 10_15_7) AppleWebKit/537.36 (KHTML, like Gecko) Chrome/117.0.0.0 Safari/537.36" etag="oDyXaRhgdDhYPR3OBsm-" version="22.0.4" type="github">
  <diagram name="第 1 页" id="kBQuVRfw1J-K9WaEKgKb">
    <mxGraphModel dx="1434" dy="790" grid="1" gridSize="10" guides="1" tooltips="1" connect="1" arrows="1" fold="1" page="1" pageScale="1" pageWidth="827" pageHeight="1169" math="0" shadow="0">
      <root>
        <mxCell id="0" />
        <mxCell id="1" parent="0" />
        <mxCell id="hWuj-mbXCwpRqZGGvIiN-6" value="PushUtil" style="swimlane;fontStyle=1;align=center;verticalAlign=top;childLayout=stackLayout;horizontal=1;startSize=26;horizontalStack=0;resizeParent=1;resizeParentMax=0;resizeLast=0;collapsible=1;marginBottom=0;whiteSpace=wrap;html=1;" vertex="1" parent="1">
          <mxGeometry x="280" y="610" width="330" height="140" as="geometry" />
        </mxCell>
        <mxCell id="hWuj-mbXCwpRqZGGvIiN-7" value="- instance:PushUtil&lt;br&gt;- pushToken: String" style="text;strokeColor=none;fillColor=none;align=left;verticalAlign=top;spacingLeft=4;spacingRight=4;overflow=hidden;rotatable=0;points=[[0,0.5],[1,0.5]];portConstraint=eastwest;whiteSpace=wrap;html=1;" vertex="1" parent="hWuj-mbXCwpRqZGGvIiN-6">
          <mxGeometry y="26" width="330" height="34" as="geometry" />
        </mxCell>
        <mxCell id="hWuj-mbXCwpRqZGGvIiN-8" value="" style="line;strokeWidth=1;fillColor=none;align=left;verticalAlign=middle;spacingTop=-1;spacingLeft=3;spacingRight=3;rotatable=0;labelPosition=right;points=[];portConstraint=eastwest;strokeColor=inherit;" vertex="1" parent="hWuj-mbXCwpRqZGGvIiN-6">
          <mxGeometry y="60" width="330" height="8" as="geometry" />
        </mxCell>
        <mxCell id="hWuj-mbXCwpRqZGGvIiN-9" value="+ init():void&lt;br&gt;+ setToken(String pushToken):void&lt;br&gt;+ bindPushToken():void;&lt;br&gt;+ unBindPushToken():void" style="text;strokeColor=none;fillColor=none;align=left;verticalAlign=top;spacingLeft=4;spacingRight=4;overflow=hidden;rotatable=0;points=[[0,0.5],[1,0.5]];portConstraint=eastwest;whiteSpace=wrap;html=1;" vertex="1" parent="hWuj-mbXCwpRqZGGvIiN-6">
          <mxGeometry y="68" width="330" height="72" as="geometry" />
        </mxCell>
      </root>
    </mxGraphModel>
  </diagram>
</mxfile>
